<?xml version="1.0" encoding="UTF-8"?>
<svg width="141px" height="51px" viewBox="0 0 141 51" version="1.1" xmlns="http://www.w3.org/2000/svg" xmlns:xlink="http://www.w3.org/1999/xlink">
    <title>LOGO PURPLE Copy</title>
    <defs>
        <filter x="-18.0%" y="-95.2%" width="136.0%" height="290.5%" filterUnits="objectBoundingBox" id="appbar-logo-filter">
            <feOffset dx="0" dy="3" in="SourceAlpha" result="shadowOffsetOuter1"></feOffset>
            <feGaussianBlur stdDeviation="3.5" in="shadowOffsetOuter1" result="shadowBlurOuter1"></feGaussianBlur>
            <feColorMatrix values="0 0 0 0 0.0862745098   0 0 0 0 0.101960784   0 0 0 0 0.325490196  0 0 0 0.588204764 0" type="matrix" in="shadowBlurOuter1" result="shadowMatrixOuter1"></feColorMatrix>
            <feMerge>
                <feMergeNode in="shadowMatrixOuter1"></feMergeNode>
                <feMergeNode in="SourceGraphic"></feMergeNode>
            </feMerge>
        </filter>
        <polygon id="path-2" points="0.338065 0.341034483 20.856465 0.341034483 20.856465 19.999931 0.338065 19.999931"></polygon>
    </defs>
    <g id="Symbols" stroke="none" stroke-width="1" fill="none" fill-rule="evenodd">
        <g id="LOGO-PURPLE-Copy" filter="url(#appbar-logo-filter)" transform="translate(0.000000, 15.000000)">
            <path d="M19.04819,20.0909091 L20,20.0909091 L20,1.09090909 L19.04819,1.09090909 L19.04819,20.0909091 Z M17.1442174,20.0909091 L18.0960274,20.0909091 L18.0960274,1.09090909 L17.1442174,1.09090909 L17.1442174,20.0909091 Z M15.2405974,20.0909091 L16.1924074,20.0909091 L16.1924074,1.09090909 L15.2405974,1.09090909 L15.2405974,20.0909091 Z M13.3376827,1.0912611 L13.3376827,7.74104989 L6.66196463,7.74104989 L6.66196463,1.0912611 L5.71015464,1.0912611 L5.71015464,20.0909091 L6.66196463,20.0909091 L6.66196463,12.4910499 L13.3376827,12.4910499 L13.3376827,20.0909091 L14.2887874,20.0909091 L14.2887874,1.0912611 L13.3376827,1.0912611 Z M6.66196463,9.6411907 L13.3376827,9.6411907 L13.3376827,8.69076829 L6.66196463,8.69076829 L6.66196463,9.6411907 Z M6.66196463,11.5409795 L13.3376827,11.5409795 L13.3376827,10.5912611 L6.66196463,10.5912611 L6.66196463,11.5409795 Z M3.80688731,20.0909091 L4.7586973,20.0909091 L4.7586973,1.09090909 L3.80688731,1.09090909 L3.80688731,20.0909091 Z M1.90361998,20.0909091 L2.85472467,20.0909091 L2.85472467,1.09090909 L1.90361998,1.09090909 L1.90361998,20.0909091 Z M0,20.0909091 L0.951809991,20.0909091 L0.951809991,1.09090909 L0,1.09090909 L0,20.0909091 Z" id="Fill-1" fill="#8144FE"></path>
            <path d="M42.0502464,1.09090909 L43,1.09090909 L37.0233816,13.6783739 L37.0233816,20.0909091 L36.073276,20.0909091 L36.073276,13.6783739 L42.0502464,1.09090909 Z M40.1507392,1.09090909 L41.1004928,1.09090909 L35.1228184,13.6783739 L35.1228184,20.0909091 L34.1727128,20.0909091 L34.1727128,13.6783739 L40.1507392,1.09090909 Z M38.250176,1.09090909 L39.2002816,1.09090909 L33.2229592,13.6783739 L33.2229592,20.0909091 L32.2728536,20.0909091 L32.2728536,13.6783739 L38.250176,1.09090909 Z M29.739708,1.09090909 L30.6898136,1.09090909 L33.4739504,5.89406234 L32.9983696,6.93600691 L29.739708,1.09090909 Z M27.8130952,1.09090909 L28.7765776,1.09090909 L32.5238448,7.96492717 L32.0352392,9.00757576 L27.8130952,1.09090909 Z M25.913236,1.09090909 L26.8629896,1.09090909 L31.5733872,10.0498723 L31.0988624,11.0921689 L25.913236,1.09090909 Z M36.3503168,1.09090909 L37.3004224,1.09090909 L31.3231,13.6783739 L31.3231,20.0909091 L30.3729944,20.0909091 L30.3729944,13.6783739 L24,1.09090909 L24.9497536,1.09090909 L30.8348464,12.7152792 L36.3503168,1.09090909 Z" id="Fill-2" fill="#8144FE"></path>
            <path d="M53.7594597,15.3412611 L63,15.3412611 L63,16.2909795 L53.7594597,16.2909795 L53.7594597,17.2406979 L63,17.2406979 L63,18.1911203 L53.7594597,18.1911203 L53.7594597,19.1411907 L63,19.1411907 L63,20.0909091 L52.7937204,20.0909091 L52.7937204,1.0912611 L63,1.0912611 L63,2.0413315 L53.7594597,2.0413315 L53.7594597,2.99104989 L63,2.99104989 L63,3.9411203 L53.7594597,3.9411203 L53.7594597,4.8911907 L63,4.8911907 L63,5.84161311 L53.7594597,5.84161311 L53.7594597,8.20323679 L62.4636372,8.20323679 L62.4636372,9.15295519 L53.7594597,9.15295519 L53.7594597,10.1026736 L62.4636372,10.1026736 L62.4636372,11.052744 L53.7594597,11.052744 L53.7594597,12.0031664 L62.4636372,12.0031664 L62.4636372,12.9528848 L53.7594597,12.9528848 L53.7594597,15.3412611 Z M50.8622417,20.0909091 L51.827981,20.0909091 L51.827981,1.09090909 L50.8622417,1.09090909 L50.8622417,20.0909091 Z M48.9311209,20.0909091 L49.8965024,20.0909091 L49.8965024,1.09090909 L48.9311209,1.09090909 L48.9311209,20.0909091 Z M47,20.0909091 L47.9657393,20.0909091 L47.9657393,1.09090909 L47,1.09090909 L47,20.0909091 Z" id="Fill-3" fill="#8144FE"></path>
            <path d="M84.0788557,15.7107887 L83.1181055,14.1006729 L83.1181055,1.09090909 L84.0788557,1.09090909 L84.0788557,15.7107887 Z M82.1573554,12.4250823 L81.1966052,10.6963375 L81.1966052,1.09090909 L82.1573554,1.09090909 L82.1573554,12.4250823 Z M73.7782899,1.09090909 L74.8992244,1.09090909 L85.0392499,18.4420717 L85.0392499,1.09090909 L86,1.09090909 L86,20.0909091 L84.8658948,20.0909091 L73.7782899,1.09090909 Z M71.5236061,1.09090909 L72.6577113,1.09090909 L83.7716577,20.0909091 L82.6247377,20.0909091 L71.5236061,1.09090909 Z M70.8426446,8.75708788 L71.8037507,10.4854807 L71.8037507,20.0909091 L70.8426446,20.0909091 L70.8426446,8.75708788 Z M69.2550397,1.09090909 L70.3759742,1.09090909 L81.5038032,20.0909091 L80.3828687,20.0909091 L69.2550397,1.09090909 Z M68.9218563,5.33972799 L69.8818945,7.08114531 L69.8818945,20.0909091 L68.9218563,20.0909091 L68.9218563,5.33972799 Z M67.9611061,2.72707398 L67.9611061,20.0909091 L67,20.0909091 L67,1.09090909 L68.1476319,1.09090909 L79.2355928,20.0909091 L78.128185,20.0909091 L67.9611061,2.72707398 Z" id="Fill-4" fill="#8144FE"></path>
            <g id="Group-7" transform="translate(90.000000, 0.090909)">
                <mask id="mask-3" fill="white">
                    <use xlink:href="#path-2"></use>
                </mask>
                <g id="Clip-6"></g>
                <path d="M14.243915,10.3192414 C14.243915,9.21648276 13.898465,8.36303448 13.207565,7.76027586 C12.516315,7.15717241 11.602465,6.85510345 10.466015,6.85510345 C9.503515,6.85510345 8.677515,7.18268966 7.986265,7.83751724 C7.295365,8.49234483 6.949915,9.27682759 6.949915,10.189931 C6.949915,10.7071724 7.019915,11.1702759 7.159915,11.5792414 C7.299565,11.9885517 7.489615,12.3288966 7.730415,12.6002759 C7.970865,12.8716552 8.257515,13.0961379 8.589665,13.2723448 C8.922165,13.4492414 9.269365,13.5761379 9.632665,13.654069 C9.995615,13.7316552 10.382715,13.769931 10.793965,13.769931 C11.790765,13.769931 12.700415,13.5292414 13.522215,13.0461379 L13.522215,13.9768276 C12.674515,14.4164828 11.759965,14.6364828 10.780665,14.6364828 C10.151365,14.6364828 9.558465,14.552 9.002665,14.384069 C8.447215,14.2157931 7.942165,13.9616552 7.487865,13.6213103 C7.032865,13.2813103 6.672015,12.8157931 6.405315,12.2254483 C6.138615,11.6354483 6.005265,10.9571724 6.005265,10.189931 C6.005265,9.00062069 6.429815,7.99268966 7.277865,7.16544828 C8.126265,6.3382069 9.188865,5.92441379 10.466015,5.92441379 C11.874065,5.92441379 13.012615,6.31475862 13.883415,7.09441379 C14.753515,7.87441379 15.188565,8.94889655 15.188565,10.3192414 L15.188565,19.4957931 L14.243915,19.4957931 L14.243915,10.3192414 Z M17.077865,10.3192414 L17.077865,19.4957931 L16.133215,19.4957931 L16.133215,10.3192414 C16.133215,8.69027586 15.604365,7.3957931 14.545615,6.43510345 C13.487565,5.47441379 12.127465,4.99372414 10.466015,4.99372414 C8.926365,4.99372414 7.640815,5.4982069 6.608665,6.5057931 C5.576515,7.51441379 5.060615,8.74268966 5.060615,10.189931 C5.060615,11.0688966 5.216015,11.8575172 5.526465,12.5551034 C5.836915,13.2533793 6.259015,13.8133793 6.792415,14.2354483 C7.325815,14.6575172 7.922565,14.9788966 8.583015,15.1985517 C9.243465,15.4178621 9.941015,15.5278621 10.675665,15.5278621 C11.672465,15.5278621 12.621665,15.2995862 13.522215,14.8430345 L13.522215,15.8254483 C12.577565,16.2130345 11.624865,16.4068276 10.662715,16.4068276 C9.796815,16.4068276 8.974315,16.2754483 8.196615,16.0130345 C7.417865,15.749931 6.722415,15.3664828 6.110265,14.8623448 C5.498115,14.3585517 5.012315,13.7037241 4.654265,12.8978621 C4.295515,12.0923448 4.115965,11.1892414 4.115965,10.189931 C4.115965,8.49234483 4.726365,7.04717241 5.946465,5.85372414 C7.166215,4.66027586 8.672615,4.06337931 10.466015,4.06337931 C11.725665,4.06337931 12.853715,4.31544828 13.850865,4.81993103 C14.848015,5.32372414 15.634815,6.05372414 16.211965,7.01027586 C16.789115,7.96682759 17.077865,9.06993103 17.077865,10.3192414 L17.077865,10.3192414 Z M18.967165,10.3192414 L18.967165,19.4957931 L18.022515,19.4957931 L18.022515,10.3192414 C18.022515,8.89751724 17.692465,7.63751724 17.032015,6.53855172 C16.371565,5.43993103 15.468565,4.59751724 14.323015,4.01131034 C13.176765,3.4257931 11.891215,3.13268966 10.466015,3.13268966 C9.110115,3.13268966 7.872865,3.44958621 6.753565,4.08268966 C5.633215,4.71613793 4.757165,5.57096552 4.122615,6.64855172 C3.488765,7.72544828 3.171315,8.9057931 3.171315,10.189931 C3.171315,11.2926897 3.376765,12.2988966 3.788015,13.2082069 C4.199265,14.1171724 4.752265,14.8647586 5.447715,15.4502759 C6.142815,16.0364828 6.934515,16.4909655 7.822115,16.814069 C8.709715,17.1371724 9.639315,17.2988966 10.610215,17.2988966 C11.598265,17.2988966 12.569165,17.0964828 13.522215,16.6913103 L13.522215,17.6347586 C12.525415,18.0051034 11.546115,18.1906207 10.583615,18.1906207 C9.070565,18.1906207 7.679665,17.8547586 6.411965,17.1823448 C5.143565,16.5102759 4.129615,15.5582069 3.368715,14.3257931 C2.607465,13.0937241 2.226665,11.7151034 2.226665,10.189931 C2.226665,9.10441379 2.439115,8.06993103 2.863315,7.08751724 C3.287165,6.10510345 3.862565,5.25682759 4.588465,4.54131034 C5.314365,3.82648276 6.188665,3.25751724 7.212415,2.83544828 C8.235465,2.41303448 9.320115,2.20234483 10.466015,2.20234483 C12.066215,2.20234483 13.511365,2.5382069 14.801815,3.21027586 C16.091565,3.882 17.108665,4.83855172 17.852065,6.07958621 C18.595465,7.32062069 18.967165,8.73372414 18.967165,10.3192414 L18.967165,10.3192414 Z M20.856465,10.3192414 L20.856465,19.4957931 L19.911465,19.4957931 L19.911465,10.3192414 C19.911465,8.56131034 19.496365,6.99096552 18.665115,5.60786207 C17.834215,4.22475862 16.701615,3.15682759 15.267665,2.40234483 C13.833015,1.6482069 12.232465,1.27165517 10.466015,1.27165517 C8.768865,1.27165517 7.216615,1.67234483 5.808565,2.47372414 C4.400165,3.27475862 3.293815,4.35889655 2.489165,5.72441379 C1.684515,7.08993103 1.282715,8.57889655 1.282715,10.189931 C1.282715,11.2495862 1.455265,12.2557931 1.800365,13.2082069 C2.146165,14.1602759 2.617965,14.9916552 3.217165,15.7023448 C3.816365,16.4133793 4.507615,17.0275172 5.290215,17.544069 C6.072815,18.0613103 6.917015,18.4533793 7.822115,18.7206207 C8.727215,18.9875172 9.647715,19.1213103 10.583615,19.1213103 C11.615765,19.1213103 12.595415,18.9271724 13.522215,18.539931 L13.522215,19.4957931 C12.551665,19.8323448 11.554515,19.999931 10.531465,19.999931 C9.473065,19.999931 8.443365,19.8530345 7.441665,19.5606207 C6.440315,19.2678621 5.513515,18.8347586 4.660565,18.2616552 C3.807615,17.6885517 3.057915,17.0123448 2.410765,16.2323448 C1.763615,15.4526897 1.256465,14.5416552 0.888965,13.4985517 C0.521815,12.4564828 0.338065,11.3530345 0.338065,10.189931 C0.338065,8.85441379 0.593565,7.58131034 1.105615,6.37027586 C1.616965,5.15993103 2.316965,4.11303448 3.204215,3.22958621 C4.091815,2.34648276 5.167715,1.64441379 6.431565,1.12303448 C7.695415,0.601655172 9.040115,0.340965517 10.466015,0.340965517 C11.917465,0.340965517 13.281765,0.582344828 14.558565,1.06441379 C15.836065,1.54751724 16.937865,2.21717241 17.865015,3.07441379 C18.791815,3.932 19.522265,4.98544828 20.055665,6.23441379 C20.589415,7.48406897 20.856465,8.8457931 20.856465,10.3192414 L20.856465,10.3192414 Z" id="Fill-5" fill="#8144FE" mask="url(#mask-3)"></path>
            </g>
        </g>
    </g>
</svg>