<?xml version="1.0" encoding="UTF-8"?>
<svg width="15px" height="16px" viewBox="0 0 15 16" version="1.1" xmlns="http://www.w3.org/2000/svg" xmlns:xlink="http://www.w3.org/1999/xlink">
    <title>Shape</title>
    <g id="Symbols" stroke="none" stroke-width="1" fill="none" fill-rule="evenodd">
        <path class="icon" d="M14.2531349,1.56738517 L10.6996234,0.0792151735 C10.3958908,-0.0459490671 10.0541287,-0.0185302764 9.77215695,0.153623674 C9.49018522,-0.0185302764 9.14842306,-0.0459490671 8.84469047,0.0792151735 L5.29117903,1.56738517 C5.24341456,1.58741542 5.19709784,1.61103986 5.15259209,1.63807325 C5.10808633,1.61103986 5.06176962,1.58741542 5.01400514,1.56738517 L1.4604937,0.0792151735 C1.13194892,-0.0577787222 0.759900414,-0.0152761785 0.467305491,0.192676254 C0.174710568,0.400628686 -0.000341975444,0.746960619 5.03252112e-07,1.11721375 L5.03252112e-07,13.3946163 C-0.000422415745,13.8520096 0.265745191,14.2633794 0.671614165,14.4326148 L4.2251256,15.9207848 C4.5288582,16.0459491 4.87062035,16.0185303 5.15259209,15.8463763 C5.43456382,16.0185303 5.77632597,16.0459491 6.08005857,15.9207848 L9.63357001,14.4326148 C9.68133448,14.4125846 9.7276512,14.3889601 9.77215695,14.3619268 C9.81666271,14.3889601 9.86297942,14.4125846 9.9107439,14.4326148 L13.4642553,15.9207848 C13.7928001,16.0577787 14.1648486,16.0152762 14.4574435,15.8073237 C14.7500385,15.5993713 14.925091,15.2530394 14.9247485,14.8827863 L14.9247485,2.60538375 C14.9251715,2.1479904 14.6590038,1.73662058 14.2531349,1.56738517 L14.2531349,1.56738517 Z M1.06605393,13.3946163 L1.06605393,1.11721375 L4.61956537,2.60538375 L4.61956537,14.8827863 L1.06605393,13.3946163 Z M5.6856188,14.8827863 L5.6856188,2.60538375 L9.23913024,1.11721375 L9.23913024,13.3946163 L5.6856188,14.8827863 Z M13.8586951,14.8827863 L10.3051837,13.3946163 L10.3051837,1.11721375 L13.8586951,2.60538375 L13.8586951,14.8827863 Z" id="Shape" fill="#FFFFFF"></path>
    </g>
</svg>