<?xml version="1.0" encoding="UTF-8"?>
<svg width="15px" height="18px" viewBox="0 0 15 18" version="1.1" xmlns="http://www.w3.org/2000/svg" xmlns:xlink="http://www.w3.org/1999/xlink">
    <title>MIC Copy 2</title>
    <g id="Symbols" stroke="none" stroke-width="1" fill="none" fill-rule="evenodd">
        <g class="icon" id="Group" fill="#FFF" transform="translate(0.000000, 0.478261)">
            <path d="M0.815217391,3.83930301 L0.815217391,8.81977528 C0.815217391,11.1839024 2.04538043,13.4157649 4.02538043,14.6434141 C6.16483696,15.9700538 8.82228261,15.969721 10.9615761,14.6434141 C12.9419022,13.4157649 14.1720652,11.1840688 14.1720652,8.81977528 L14.1720652,1.10816215 L13.9881522,1.20798455 C9.92608696,3.41256225 5.38190217,4.31911601 0.815217391,3.83930301 M7.49347826,16.4706631 C6.14788043,16.4706631 4.80228261,16.0986583 3.60228261,15.3544823 C1.38032609,13.9767668 0,11.4727219 0,8.81977528 L0,3.37379788 C0,3.25467649 0.0500543478,3.14137806 0.137608696,3.062352 C0.225,2.98315956 0.342228261,2.94622527 0.457336957,2.96103226 C5.00967391,3.53101816 9.55597826,2.67121456 13.6053261,0.473624427 L14.3882609,0.0487137448 C14.5144565,-0.0196645991 14.6669022,-0.0160044444 14.7895109,0.0593614674 C14.9122826,0.134394638 14.9872826,0.26982036 14.9872826,0.415893805 L14.9872826,8.81977528 C14.9872826,11.4727219 13.6069565,13.9767668 11.384837,15.3544823 C10.184837,16.0986583 8.83923913,16.4706631 7.49347826,16.4706631" id="Fill-1-Copy-3"></path>
            <path d="M10.4000707,7.32708102 C10.9144728,7.26968314 11.4084946,7.30462098 11.8505054,7.41425925 C12.302788,7.52639308 12.6029511,6.91847466 12.2856685,6.53282746 C11.7763207,5.91309673 11.0286033,5.55839447 10.236212,5.64657092 C9.44822283,5.73441463 8.79295109,6.24018146 8.42072283,6.95124968 C8.1877337,7.39662396 8.60349457,7.92601542 9.02382065,7.71988216 C9.42800543,7.5217347 9.89528804,7.38314793 10.4000707,7.32708102" id="Fill-4-Copy-3"></path>
            <path d="M4.66186957,7.32708102 C4.14746739,7.26968314 3.65328261,7.30462098 3.21143478,7.41425925 C2.75915217,7.52639308 2.45898913,6.91847466 2.77627174,6.53282746 C3.28561957,5.91309673 4.03333696,5.55839447 4.82572826,5.64657092 C5.61371739,5.73441463 6.26898913,6.24018146 6.64121739,6.95124968 C6.87420652,7.39662396 6.45844565,7.92601542 6.03811957,7.71988216 C5.63393478,7.5217347 5.16665217,7.38314793 4.66186957,7.32708102" id="Fill-6-Copy-2"></path>
            <path d="M7.53009783,10.9350785 C5.82058696,10.9628624 4.26075,10.5680648 3.0956413,9.90175027 C2.8256413,9.74735829 2.50069565,10.0040682 2.58286957,10.3083602 C3.18270652,12.5322369 5.19319565,14.1500252 7.55830435,14.11176 C9.91232609,14.0736611 11.8654239,12.4069598 12.4065652,10.1800884 C12.480913,9.87413274 12.1504239,9.62640681 11.8845,9.78678814 C10.7451522,10.4740654 9.21678261,10.9077937 7.53009783,10.9350785" id="Fill-8-Copy-2"></path>
        </g>
    </g>
</svg>