<?xml version="1.0" encoding="UTF-8"?>
<svg width="20px" height="14px" viewBox="0 0 20 14" version="1.1" xmlns="http://www.w3.org/2000/svg" xmlns:xlink="http://www.w3.org/1999/xlink">
    <title>HYENA MARK</title>
    <g id="Symbols" stroke="none" stroke-width="1" fill="none" fill-rule="evenodd">
        <g id="Group-12" class="icon" fill="#FFFFFF">
            <path d="M11.1190325,8.56946601 C10.8274996,9.11086759 9.82121615,9.39954635 9.82121615,9.39954635 C9.82121615,9.39954635 8.81416545,9.11086759 8.5226476,8.56946601 C8.23188199,8.0272152 9.82121615,8.06406587 9.82121615,8.06406587 C9.82121615,8.06406587 11.409783,8.0272152 11.1190325,8.56946601" id="Fill-1"></path>
            <path d="M11.9931723,11.3508759 C11.0102981,11.3670113 10.3177232,12.0190862 10.0160503,12.3669839 C9.96113779,12.371594 9.90399867,12.3762041 9.84463296,12.3785092 C7.71659934,12.2955421 7.13372914,10.5145476 6.9942814,9.89709411 C8.1257654,10.3947298 8.9485808,10.4661716 9.60918608,10.4661716 L10.0388729,10.4638665 C10.749757,10.4638665 11.5634855,10.3947298 12.688049,9.89709411 C12.619461,10.2012259 12.4320212,10.8117793 11.9931723,11.3508759 M12.8845907,9.63901809 C12.8548928,9.61369273 12.8114894,9.61140283 12.7771577,9.62747761 C11.4286113,10.2588373 10.5325741,10.2588373 9.93372666,10.2564716 L9.75087545,10.2564716 C9.15432978,10.2610969 8.25376426,10.2588373 6.90515761,9.62747761 C6.87088617,9.61140283 6.82970929,9.61369273 6.79773967,9.63901809 C6.76569482,9.66208388 6.74974762,9.69891939 6.75430611,9.73805996 C6.75889469,9.76575104 7.13601591,12.4844814 9.84463296,12.5858586 C11.0514299,12.5397726 11.7942836,11.9730001 12.2468531,11.3578517 C12.8091875,10.5929046 12.9257676,9.75421056 12.9280694,9.73805996 C12.9349297,9.69891939 12.9166205,9.66208388 12.8845907,9.63901809" id="Fill-3"></path>
            <path d="M11.9931723,11.3508759 C11.5885948,11.8485722 10.9646079,12.2863218 10.0160503,12.3669839 C10.3177232,12.0190862 11.0102981,11.3670113 11.9931723,11.3508759" id="Fill-5"></path>
            <path d="M9.60357597,10.7303742 C9.02183411,10.7303742 8.30147196,10.6824077 7.34570806,10.336527 C7.41936608,10.5260729 7.51270234,10.7140113 7.61930787,10.8869365 C8.46092893,11.1592675 9.12112801,11.1943287 9.6033503,11.1943287 L10.043478,11.1917962 C10.576265,11.1917962 11.2314392,11.1555825 12.0590989,10.8883317 C12.1668478,10.7142388 12.2613124,10.5260729 12.3356775,10.3367545 C11.3899634,10.6791776 10.6755589,10.7278417 10.0437187,10.7278417 L9.60357597,10.7303742 Z" id="Fill-7"></path>
            <g id="Group-11" transform="translate(0.000000, 0.001365)">
                <path d="M18.5074835,3.02977125 L19.1269119,3.66568039 C18.4823742,5.71623071 17.4286855,6.28991833 16.6422929,6.4028664 C16.5737801,6.39129559 16.2972165,6.33604992 15.9406311,6.10564981 C15.5794571,5.86831935 15.0651749,5.40290901 14.6080318,4.50661879 C14.6858271,4.47669847 14.7680755,4.44445792 14.850324,4.41217188 C15.8034701,4.01589826 17.099436,3.22788531 17.8400781,1.71188204 C18.1212002,1.13819442 18.4343822,0.702704399 18.7726584,0.414708058 C19.2869556,0.525290403 19.4560411,1.49302241 19.4560411,1.96528727 L19.4560411,2.00450367 L18.6468862,2.34548612 C18.5166306,2.39847223 18.4252201,2.51135963 18.3977788,2.64963306 C18.3703226,2.78783066 18.4114994,2.93071421 18.5074835,3.02977125 M13.5954748,10.5569532 C13.4171671,10.8150292 13.2182934,11.1053306 12.9074735,11.5085346 C12.6766152,11.4232624 12.4548889,11.3748864 12.2468531,11.3564914 C12.1623179,11.347256 12.0777677,11.3449054 11.9931723,11.3495156 C11.0102981,11.365651 10.3177232,12.0177108 10.0160503,12.3656236 C9.90399867,12.496906 9.84463296,12.5844832 9.84463296,12.5844832 C10.7451834,12.6029389 11.1863041,12.6236844 11.5063464,12.8148985 C10.9211894,13.1466455 10.3817377,13.2111569 9.89719854,13.2111569 L9.73256626,13.2111569 C8.89830198,13.2111569 7.89717882,13.0222783 6.79315109,11.6006612 C6.44115423,11.1490964 6.22630331,10.8334697 6.03428998,10.5569532 C5.84683515,10.280467 5.68233827,10.0385415 5.430884,9.72984514 C6.27429536,8.78287386 7.86972256,7.35438714 9.80572781,7.35209724 L9.81946346,7.35209724 C10.7908887,7.35209724 11.6731902,7.71153536 12.4206325,8.18610529 C13.1657278,8.6630561 13.7759941,9.25519939 14.1988658,9.72984514 C13.9474265,10.0385415 13.7829146,10.280467 13.5954748,10.5569532 M13.1497656,12.4854262 C13.2571986,12.5683477 13.3623298,12.6582149 13.4537854,12.7595921 C13.5497695,12.8586492 13.632033,12.9692922 13.7097079,13.0844998 C13.7668471,13.1674062 13.7462962,13.2825987 13.6640628,13.3401949 C13.5817392,13.3955013 13.4697477,13.3747557 13.4126086,13.2918341 C13.40802,13.287224 13.4057483,13.2825987 13.4034464,13.2756835 L13.3988729,13.2687683 C13.3417338,13.1651012 13.2845947,13.0637391 13.2114933,12.9692922 C13.1406185,12.8724795 13.0583099,12.7849023 12.9714729,12.7043009 C12.8845907,12.6213339 12.7886066,12.5476325 12.6857472,12.480816 C12.5874914,12.4139844 12.4754397,12.3540831 12.3702935,12.3149425 L12.3634934,12.3126223 C12.3131544,12.2918616 12.288045,12.2342653 12.3063392,12.1835994 C12.3245882,12.1352083 12.3771538,12.1098374 12.425206,12.123683 C12.5623219,12.1605185 12.6834755,12.2112602 12.8046291,12.271116 C12.9234808,12.3333375 13.0400609,12.4024591 13.1497656,12.4854262 M5.78288086,5.94432576 C6.0068939,5.38445335 6.5966244,5.01124552 7.25259597,5.06647603 C7.91542784,5.1195228 8.43887214,5.59186349 8.56459927,6.18855624 C8.60114244,6.37058036 8.45945306,6.5387741 8.294896,6.50192343 C7.99773646,6.43741201 7.5291445,6.34290444 7.14289126,6.308374 C6.73143843,6.27382839 6.29031778,6.28991833 6.0068939,6.308374 C5.83317472,6.31759425 5.71202112,6.12172459 5.78288086,5.94432576 M7.30744832,2.24406336 C7.44003576,1.45841614 8.1737424,1.43767058 8.1737424,1.43767058 C7.97715554,1.33404891 7.76001785,1.306373 7.5840119,1.306373 C7.37373452,1.306373 7.22062634,1.34552873 7.22062634,1.34552873 C7.46514508,0.995310865 7.78059877,0.903184185 8.05030204,0.903184185 C8.35205017,0.903184185 8.59205554,1.02298678 8.59205554,1.02298678 C8.60114244,0.829437347 8.24233041,0.41244849 8.24233041,0.41244849 C8.31090338,0.400862518 8.37485767,0.396297887 8.43658538,0.396297887 C9.083455,0.396297887 9.50634167,0.963085483 9.50634167,0.963085483 C9.55433372,0.728075252 9.25031387,0.230424369 9.25031387,0.230424369 C10.2857536,0.396297887 10.7337346,1.24186157 10.7337346,1.24186157 C10.8252053,1.01837666 10.6788972,0.622087868 10.6651616,0.582886639 C11.7028881,0.935409567 11.6617563,1.94689227 11.6594696,2.0206391 L11.6594696,2.02288351 C11.6594696,2.02288351 11.4125888,1.96528727 11.0857615,1.96528727 C10.8320054,1.96528727 10.5303476,1.99987838 10.2582973,2.12887089 C9.77375818,2.359271 9.24345357,2.93988897 9.24345357,2.93988897 C9.11091127,2.65187746 9.27777014,2.27173928 9.27777014,2.27173928 L9.24115176,2.27173928 C8.58289342,2.27173928 8.02519272,3.17263963 8.02519272,3.17263963 C7.68456953,2.28788988 8.30634489,2.09202022 8.30634489,2.09202022 C8.28573388,2.0874101 8.26057943,2.08510503 8.23775688,2.08510503 C7.91089943,2.08510503 7.28685236,2.49291913 7.28685236,2.49291913 C7.28685236,2.40308235 7.29371266,2.32011526 7.30744832,2.24406336 M12.0549,4.60343142 C12.1097523,4.61489607 12.1463105,4.67250747 12.1394954,4.73471383 C12.1394954,4.73701889 12.1394954,4.73932395 12.1371484,4.74162902 C12.1303332,4.78769994 12.0983034,4.82690117 12.0571867,4.83844165 L12.0480397,4.84068605 C11.9520556,4.8660569 11.8628716,4.89367216 11.7851967,4.92365314 C11.6868807,4.96286953 11.6091908,5.0020101 11.5428895,5.0434709 C11.4674562,5.08954182 11.3966416,5.14944312 11.3303254,5.21627477 C11.2708995,5.273871 11.2206207,5.34761784 11.1657232,5.42366974 C11.1657232,5.42366974 11.042343,5.51579642 10.9988643,5.47665585 C10.9623211,5.44206475 10.9485855,5.38675841 10.9668796,5.33839759 C11.0194452,5.1978191 11.0743126,5.09184688 11.1428856,5.00663539 C11.2114736,4.90982276 11.3028841,4.82229104 11.4034418,4.75547456 C11.5085729,4.68633784 11.6160661,4.63796186 11.7211973,4.61265167 C11.8400491,4.58497575 11.947467,4.58036562 12.0549,4.60343142 M13.6046219,5.29924186 C13.613784,5.4098242 13.5314603,5.50427111 13.4217556,5.5111863 C12.6788869,5.55725722 12.2011478,5.76004207 11.9040033,5.95585107 C12.3154411,5.92593075 12.8823641,5.9604612 13.4903437,6.22545241 C13.5908862,6.27152333 13.6365915,6.38673096 13.5954748,6.48807789 C13.5611582,6.5640843 13.4880418,6.60791082 13.4126086,6.60791082 C13.3851974,6.60791082 13.360043,6.60328553 13.3349337,6.59176021 C12.3017807,6.14248532 11.3851928,6.44887666 11.3783325,6.45348679 C11.2983106,6.47885764 11.2137603,6.45585251 11.1611346,6.39129559 C11.108569,6.32911956 11.0994821,6.24154235 11.1383271,6.17011574 C11.1566363,6.13096 11.6640431,5.22088489 13.3966463,5.11259245 C13.5017624,5.10799749 13.5977465,5.18865951 13.6046219,5.29924186 M2.99883053,6.37058036 C0.73599793,6.04112322 0.214855436,2.49291913 0.214855436,1.96528727 C0.214855436,1.50685278 0.374823916,0.57140682 0.857151524,0.449283997 C1.18856746,0.73499044 1.49716084,1.16350461 1.77142261,1.72566692 C2.51429138,3.25093594 3.81714762,4.04351351 4.7794258,4.4420922 C4.85030057,4.46978328 4.91887354,4.49744403 4.98746155,4.52507445 C4.15313709,6.13787519 3.1543007,6.34751457 2.99883053,6.37058036 M18.7177609,2.51367986 L19.6320471,2.13348102 C19.6366206,2.06440496 19.6389675,2.00680873 19.6389675,1.96528727 C19.6389675,1.49070218 19.4697617,0.274190229 18.7200928,0.221204119 C18.5097101,0.205053516 18.2538027,0.281105417 17.9452093,0.490744794 C16.5280146,1.44689083 13.8697366,3.09428267 13.8697366,3.09428267 C13.8697366,3.09428267 13.0857511,2.48604944 11.8651584,2.08510503 C11.8697319,2.06901509 11.8720187,2.05518471 11.8720187,2.03903411 C11.9063503,1.60821488 11.7097484,0.707314524 10.729161,0.373247261 C10.7085651,0.366332073 10.6834557,0.361706783 10.6628598,0.361706783 C10.6034339,0.361706783 10.5462948,0.387077637 10.5051781,0.430843496 C10.4708916,0.467679003 10.4503107,0.516054988 10.4457371,0.564491632 C10.1829092,0.331786464 9.80115427,0.099081296 9.28457027,0.0161142073 C9.27318156,0.0138091447 9.26174772,0.0138091447 9.25031387,0.0138091447 C9.1794391,0.0138091447 9.11313786,0.0484002486 9.07429288,0.110606609 C9.02860265,0.175072537 9.02402911,0.260344689 9.06057227,0.331786464 C8.88456632,0.241904188 8.67430398,0.179682662 8.43658538,0.179682662 C8.36113706,0.179682662 8.28344711,0.184292788 8.20571203,0.200443391 C8.13032389,0.211968704 8.06861123,0.267259876 8.04115497,0.341006715 C8.01374384,0.414708058 8.03199285,0.495354919 8.07999994,0.552966319 C8.11889005,0.599022077 8.15543321,0.645092999 8.1920516,0.693468984 C8.14628614,0.688858858 8.09600732,0.686614455 8.05030204,0.686614455 C7.63657749,0.686614455 7.28913913,0.870882979 7.04460535,1.22110085 C6.9942814,1.29484768 6.99203976,1.39390472 7.04231858,1.46765155 C7.08345032,1.52755285 7.15203833,1.5620833 7.22062634,1.5620833 C7.23657354,1.5620833 7.25488273,1.55983889 7.27089011,1.55522877 C7.27089011,1.55522877 7.33947812,1.54139839 7.44003576,1.53216298 C7.26174304,1.69805166 7.11090659,1.95150239 7.07887679,2.34087599 C6.26284647,2.70486357 5.76916025,3.09428267 5.76916025,3.09428267 C5.76916025,3.09428267 1.15429602,0.221204119 0.921150952,0.221204119 C0.543984603,0.248819376 0.315398025,0.564491632 0.17829723,0.935409567 C0.0411362564,1.30406793 -1.05311705e-05,1.72803264 -1.05311705e-05,1.96528727 C-1.05311705e-05,2.57358116 0.553131677,6.26230308 2.99660394,6.58945515 C2.78399466,7.03647048 3.1839986,8.44187625 4.30174695,9.09848546 C4.64002319,9.29664502 4.90972647,9.49713997 5.14973184,9.72521985 C5.74856428,10.4417455 5.88115172,10.7804836 6.62402049,11.7366296 C7.79427424,13.2365278 8.88685309,13.4300924 9.73256626,13.4300924 L9.89719854,13.4300924 C10.4160543,13.4300924 11.0263206,13.3563607 11.6914392,12.9554466 C11.9268861,13.1720163 12.1234729,13.439252 12.4686245,13.741109 C13.497204,14.635079 15.3440704,12.8333238 13.3829107,11.7296993 C13.291455,11.6790182 13.2000444,11.6352523 13.1131472,11.5937461 C13.7646054,10.7458925 13.9246642,10.4072151 14.4915119,9.72521985 C14.7291102,9.49944503 15.0012206,9.29664502 15.3371649,9.09848546 C16.4548982,8.44187625 16.8572642,7.03647048 16.6446398,6.58945515 C18.1692073,6.38441074 18.9577061,4.87066703 19.3349477,3.61269428 L18.640071,2.90073324 C18.5234458,2.78091547 18.5623961,2.58049635 18.7177609,2.51367986" id="Fill-9"></path>
            </g>
        </g>
    </g>
</svg>