<?xml version="1.0" encoding="UTF-8"?>
<svg width="23px" height="23px" viewBox="0 0 23 23" version="1.1" xmlns="http://www.w3.org/2000/svg" xmlns:xlink="http://www.w3.org/1999/xlink">
    <title>Group 6</title>
    <g id="Symbols" stroke="none" stroke-width="1" fill="none" fill-rule="evenodd">
        <g id="Group-6" class="icon" transform="translate(11.313708, 11.313708) rotate(-45.000000) translate(-11.313708, -11.313708) translate(1.313708, 5.313708)" fill="#FFFFFF" fill-rule="nonzero">
            <path d="M13.9489356,0.853553391 C14.4293584,0.853553391 14.9018186,0.975441489 15.3274607,1.20773381 L15.506899,1.31401363 L17.9790491,2.89774957 C18.8319708,3.44415767 19.3729376,4.39984279 19.4336294,5.44807243 L19.4393398,5.64562266 L19.4393398,7.07253615 C19.4393398,8.13376106 18.9460907,9.12167084 18.1295027,9.71746258 L17.9726448,9.82450056 L15.5039433,11.3971845 C15.0937621,11.65849 14.6319133,11.8119183 14.1567359,11.8461925 L13.9523842,11.8535534 L12.9370632,11.8535534 C12.6989295,11.8535534 12.505884,11.6483506 12.505884,11.3952201 C12.505884,11.1702152 12.6584138,10.9830791 12.8595582,10.9442711 L12.9370632,10.9368867 L13.9523842,10.9368867 C14.286987,10.9368867 14.6162081,10.8541108 14.9143051,10.6961309 L15.0606407,10.6109089 L17.5293422,9.03822502 C18.1359175,8.65180676 18.5228291,7.97595675 18.5717215,7.23274575 L18.5769815,7.07253615 L18.5769815,5.64562266 C18.5769815,4.895809 18.2322322,4.19709627 17.6599813,3.77011305 L17.5339167,3.68285617 L15.0617666,2.09912023 C14.7738558,1.91467566 14.4500499,1.80478084 14.1164379,1.77714649 L13.9489356,1.77022006 L3.45759401,1.77022006 C2.31455235,1.77022006 1.37927707,2.71579467 1.30628391,3.91120901 L1.30169817,4.06188672 L1.30169817,8.64522006 C1.30169817,9.86024651 2.19125178,10.8544222 3.31584326,10.9320122 L3.45759401,10.9368867 L8.61782749,10.9368867 C8.85596117,10.9368867 9.04900666,11.1420895 9.04900666,11.3952201 C9.04900666,11.620225 8.89647689,11.8073611 8.69533249,11.846169 L8.61782749,11.8535534 L3.45759401,11.8535534 C1.84622278,11.8535534 0.529778409,10.5112989 0.443805864,8.82125233 L0.439339828,8.64522006 L0.439339828,4.06188672 C0.439339828,2.34903694 1.70207182,0.949687479 3.29199085,0.858300681 L3.45759401,0.853553391 L13.9489356,0.853553391 Z" id="Path"></path>
            <path d="M14.8890873,4.35355339 C15.9936568,4.35355339 16.8890873,5.24898389 16.8890873,6.35355339 C16.8890873,7.45812289 15.9936568,8.35355339 14.8890873,8.35355339 C13.7845178,8.35355339 12.8890873,7.45812289 12.8890873,6.35355339 C12.8890873,5.24898389 13.7845178,4.35355339 14.8890873,4.35355339 Z M14.8890873,5.35355339 C14.3368025,5.35355339 13.8890873,5.80126864 13.8890873,6.35355339 C13.8890873,6.90583814 14.3368025,7.35355339 14.8890873,7.35355339 C15.441372,7.35355339 15.8890873,6.90583814 15.8890873,6.35355339 C15.8890873,5.80126864 15.441372,5.35355339 14.8890873,5.35355339 Z" id="Combined-Shape"></path>
        </g>
    </g>
</svg>