<?xml version="1.0" encoding="UTF-8"?>
<svg width="15px" height="19px" viewBox="0 0 15 19" version="1.1" xmlns="http://www.w3.org/2000/svg" xmlns:xlink="http://www.w3.org/1999/xlink">
    <title>Profile - White</title>
    <g id="Symbols" stroke="none" stroke-width="1" fill="none" fill-rule="evenodd">
        <g id="Profile---White" class="icon" fill="#FFFFFF">
            <path d="M7.50039004,0.5 C4.46273997,0.5 2,2.96256533 2,6 C2,9.03743467 4.46273997,11.5 7.50039004,11.5 C10.5379215,11.5 13,9.0375533 13,6 C13,2.9624467 10.5379215,0.5 7.50039004,0.5 Z M7.50039004,1.72321498 C9.86225025,1.72321498 11.7766983,3.63794932 11.7766983,6 C11.7766983,8.36205068 9.86225025,10.276785 7.50039004,10.276785 C5.13835085,10.276785 3.22330172,8.36187169 3.22330172,6 C3.22330172,3.63812831 5.13835085,1.72321498 7.50039004,1.72321498 Z" id="Stroke-1" fill-rule="nonzero"></path>
            <path d="M9.66059839,7.50392769 C9.85420047,7.4750285 10.0265688,7.6098914 9.99659168,7.76756945 C9.80736126,8.74862099 8.76191003,9.5 7.49974939,9.5 C6.23821326,9.5 5.19213751,8.74862099 5.00353162,7.76756945 C4.97293,7.6098914 5.14592282,7.4750285 5.3395249,7.50392769 C5.92158018,7.58961126 6.53611065,7.7447543 7.49974939,7.7447543 C8.47213144,7.7447543 9.07791859,7.58961126 9.66059839,7.50392769" id="Fill-3"></path>
            <path d="M7.5,10.5 C11.5718241,10.5 14.8859452,13.7152642 14.9971186,17.7235502 L15,17.9315701 L15,18.5 L0,18.5 L0,17.9315701 C0,16.8563822 0.230921513,15.8125897 0.671319496,14.8548003 C0.802677625,14.569119 1.1428873,14.4430439 1.43119908,14.5732035 C1.71951085,14.7033631 1.84674692,15.0404687 1.71538879,15.3261499 C1.45451286,15.89351 1.28051344,16.4964589 1.19959263,17.1198999 L1.1733341,17.3631007 L13.8260673,17.3631007 C13.5403193,14.2134565 10.9192603,11.735703 7.69421374,11.6397454 L7.5,11.6368598 C5.82810763,11.6368598 4.25913406,12.2793541 3.08115428,13.4089113 C2.85348037,13.6272263 2.49030527,13.6213235 2.26997999,13.3957268 C2.04965472,13.1701302 2.05561196,12.8102687 2.28328587,12.5919537 C3.67310354,11.2592665 5.52723525,10.5 7.5,10.5 Z" id="Stroke-5" fill-rule="nonzero"></path>
        </g>
    </g>
</svg>