<?xml version="1.0" encoding="UTF-8"?>
<svg width="13px" height="16px" viewBox="0 0 13 16" version="1.1" xmlns="http://www.w3.org/2000/svg" xmlns:xlink="http://www.w3.org/1999/xlink">
    <title>Group</title>
    <g id="Symbols" stroke="none" stroke-width="1" fill="none" fill-rule="evenodd">
        <g id="Group" class="icon" fill="#FFFFFF" fill-rule="nonzero">
            <path d="M6.26621058,0.097985993 C9.57635339,0.097985993 12.2668361,2.7332972 12.2668361,5.99407662 C12.2668361,6.83335067 12.1154326,7.65412063 11.8265519,8.46269685 C11.7346571,8.71991003 11.4552084,8.8526334 11.2023858,8.75914279 C10.9495631,8.66565219 10.8191053,8.38135059 10.911,8.12413741 C11.1622856,7.42078977 11.2926811,6.71390605 11.2926811,5.99407662 C11.2926811,3.28923993 9.04643746,1.08905818 6.26621058,1.08905818 C3.48705769,1.08905818 1.24099115,3.28941135 1.24099115,5.99407662 C1.24099115,7.84550809 2.14658655,9.60155799 3.87996992,11.6559843 L4.16600406,11.9859688 L5.74447385,13.759955 L5.89088597,13.9290509 C6.08923696,14.1661928 6.44443528,14.1661928 6.64280738,13.9290257 L6.77673528,13.774612 L7.49812225,12.9764159 L8.55267546,11.8147854 L8.65806515,11.6949561 C9.16331379,11.1107616 9.58074558,10.5725829 9.93812437,10.0294444 C10.0877668,9.80202028 10.3902927,9.7410724 10.6138348,9.89331355 C10.837377,10.0455547 10.8972845,10.3533342 10.747642,10.5807584 C10.4187088,11.0806657 10.0462477,11.5716978 9.61185909,12.0887695 L9.33042313,12.4171504 L7.55894611,14.3719495 L7.42944351,14.5188876 C7.41214986,14.538866 7.39715419,14.5564282 7.38468592,14.5713328 C6.79735318,15.2735285 5.73631906,15.2735285 5.14902947,14.5713844 L4.98319278,14.3805821 L3.43337254,12.6392606 L3.14078954,12.3015031 C1.2693524,10.0834539 0.26683612,8.13946365 0.26683612,5.99407662 C0.26683612,2.7335048 2.95710906,0.097985993 6.26621058,0.097985993 Z" id="Stroke-1"></path>
            <path d="M6.26683612,3.09798599 C4.6101488,3.09798599 3.26683612,4.44129867 3.26683612,6.09798599 C3.26683612,7.75467331 4.6101488,9.09798599 6.26683612,9.09798599 C7.92352344,9.09798599 9.26683612,7.75467331 9.26683612,6.09798599 C9.26683612,4.44129867 7.92352344,3.09798599 6.26683612,3.09798599 Z M6.26683612,4.09798599 C7.37122355,4.09798599 8.26683612,4.99359856 8.26683612,6.09798599 C8.26683612,7.20237342 7.37122355,8.09798599 6.26683612,8.09798599 C5.16244869,8.09798599 4.26683612,7.20237342 4.26683612,6.09798599 C4.26683612,4.99359856 5.16244869,4.09798599 6.26683612,4.09798599 Z" id="Stroke-3"></path>
        </g>
    </g>
</svg>